<svg width="19" height="19" viewBox="0 0 19 19" fill="none" xmlns="http://www.w3.org/2000/svg">
  <path
    d="M14.5761 13.2759L18.3995 17.0984L17.1363 18.3615L13.3138 14.5381C11.8915 15.6783 10.1225 16.2984 8.29959 16.2958C3.86471 16.2958 0.265381 12.6965 0.265381 8.26161C0.265381 3.82673 3.86471 0.227402 8.29959 0.227402C12.7345 0.227402 16.3338 3.82673 16.3338 8.26161C16.3364 10.0845 15.7163 11.8536 14.5761 13.2759ZM12.7854 12.6135C13.9183 11.4484 14.551 9.88669 14.5484 8.26161C14.5484 4.80869 11.7516 2.01278 8.29959 2.01278C4.84667 2.01278 2.05076 4.80869 2.05076 8.26161C2.05076 11.7136 4.84667 14.5104 8.29959 14.5104C9.92467 14.513 11.4864 13.8803 12.6515 12.7474L12.7854 12.6135Z"
    fill="#9378FF" fill-opacity="0.4"/>
</svg>
