<svg width="61" height="60" viewBox="0 0 61 60" fill="none" xmlns="http://www.w3.org/2000/svg">
  <path d="M37.9309 36.5625L42.4191 38.8928C44.1588 39.5886 45.6501 40.7898 46.7006 42.3413C47.751 43.8928 48.3125 45.7235 48.3125 47.5972V57.1875H12.6875V47.5972C12.6875 45.7236 13.2489 43.8929 14.2994 42.3413C15.3498 40.7898 16.8411 39.5886 18.5807 38.8928L23 36.5984L37.9309 36.5625Z" fill="#007AF6"/>
  <path d="M36.125 31.875V35.625L38 36.5625L30.5 45.9375L23 36.5625L24.875 35.625V31.875H36.125Z" fill="#FDC9A6"/>
  <path d="M36.125 31.875V34.4133C34.5782 35.7973 32.5756 36.5625 30.5 36.5625C28.4244 36.5625 26.4217 35.7973 24.875 34.4133V31.875H36.125Z" fill="#FDC9A6"/>
  <path d="M24.875 39.375C28.5262 40.5921 32.4738 40.5921 36.125 39.375L30.5 45.9375L24.875 39.375Z" fill="#EAEAE8"/>
  <path d="M19.25 48.75V56.25" stroke="black" stroke-width="1.875" stroke-linecap="round" stroke-linejoin="round"/>
  <path d="M36.125 31.875V34.4133C34.5782 35.7973 32.5756 36.5625 30.5 36.5625C28.4244 36.5625 26.4217 35.7973 24.875 34.4133V31.875H36.125Z" fill="#E6AF89"/>
  <path d="M22.0625 9.375H38.9375V27.1875C38.9375 28.2955 38.7193 29.3927 38.2952 30.4164C37.8712 31.4401 37.2497 32.3702 36.4662 33.1537C35.6827 33.9372 34.7526 34.5587 33.7289 34.9827C32.7052 35.4068 31.608 35.625 30.5 35.625C28.2622 35.625 26.1161 34.7361 24.5338 33.1537C22.9514 31.5714 22.0625 29.4253 22.0625 27.1875V9.375Z" fill="#FDC9A6"/>
  <path d="M26.0469 22.8516C26.6941 22.8516 27.2188 22.3269 27.2188 21.6797C27.2188 21.0325 26.6941 20.5078 26.0469 20.5078C25.3997 20.5078 24.875 21.0325 24.875 21.6797C24.875 22.3269 25.3997 22.8516 26.0469 22.8516Z" fill="#422608"/>
  <path d="M31.4375 27.1875H31.2775C30.5743 27.1867 29.9001 26.907 29.4028 26.4097C28.9055 25.9124 28.6258 25.2382 28.625 24.535V22.5C28.625 22.2514 28.7238 22.0129 28.8996 21.8371C29.0754 21.6613 29.3139 21.5625 29.5625 21.5625C29.8111 21.5625 30.0496 21.6613 30.2254 21.8371C30.4012 22.0129 30.5 22.2514 30.5 22.5V24.535C30.5002 24.7411 30.5822 24.9387 30.728 25.0845C30.8738 25.2303 31.0714 25.3123 31.2775 25.3125H31.4375C31.6861 25.3125 31.9246 25.4113 32.1004 25.5871C32.2762 25.7629 32.375 26.0014 32.375 26.25C32.375 26.4986 32.2762 26.7371 32.1004 26.9129C31.9246 27.0887 31.6861 27.1875 31.4375 27.1875Z" fill="#E6AF89"/>
  <path d="M31.0493 30H28.625C28.3764 30 28.1379 29.9012 27.9621 29.7254C27.7863 29.5496 27.6875 29.3111 27.6875 29.0625C27.6875 28.8139 27.7863 28.5754 27.9621 28.3996C28.1379 28.2238 28.3764 28.125 28.625 28.125H31.0493C31.3466 28.1258 31.6411 28.0676 31.9158 27.9538C32.1905 27.84 32.4399 27.6729 32.6496 27.4621C32.7366 27.375 32.84 27.306 32.9537 27.2588C33.0675 27.2117 33.1894 27.1875 33.3125 27.1875C33.4356 27.1875 33.5575 27.2117 33.6713 27.2588C33.785 27.306 33.8884 27.375 33.9754 27.4621C34.0625 27.5491 34.1315 27.6525 34.1787 27.7662C34.2258 27.88 34.25 28.0019 34.25 28.125C34.25 28.2481 34.2258 28.37 34.1787 28.4838C34.1315 28.5975 34.0625 28.7009 33.9754 28.7879C33.5921 29.1734 33.136 29.479 32.6338 29.6871C32.1315 29.8951 31.5929 30.0015 31.0493 30Z" fill="#E6AF89"/>
  <path d="M35.4219 22.8516C36.0691 22.8516 36.5938 22.3269 36.5938 21.6797C36.5938 21.0325 36.0691 20.5078 35.4219 20.5078C34.7747 20.5078 34.25 21.0325 34.25 21.6797C34.25 22.3269 34.7747 22.8516 35.4219 22.8516Z" fill="#422608"/>
  <path d="M19.25 51.5625H26.75V57.1875H19.25V51.5625Z" fill="#005DBB"/>
  <path d="M29.5625 57.1875V45C29.5625 44.9521 29.566 44.9044 29.573 44.857L30.5 45.9375L31.427 44.857C31.434 44.9044 31.4375 44.9521 31.4375 45V57.1875H29.5625Z" fill="#005DBB"/>
  <path d="M36.125 52.5C35.8764 52.5 35.6379 52.4012 35.4621 52.2254C35.2863 52.0496 35.1875 51.8111 35.1875 51.5625V48.75C35.1875 48.5014 35.2863 48.2629 35.4621 48.0871C35.6379 47.9113 35.8764 47.8125 36.125 47.8125C36.3736 47.8125 36.6121 47.9113 36.7879 48.0871C36.9637 48.2629 37.0625 48.5014 37.0625 48.75V51.5625C37.0625 51.8111 36.9637 52.0496 36.7879 52.2254C36.6121 52.4012 36.3736 52.5 36.125 52.5Z" fill="#EE5E5B"/>
  <path d="M38.9375 52.5C38.6889 52.5 38.4504 52.4012 38.2746 52.2254C38.0988 52.0496 38 51.8111 38 51.5625V48.75C38 48.5014 38.0988 48.2629 38.2746 48.0871C38.4504 47.9113 38.6889 47.8125 38.9375 47.8125C39.1861 47.8125 39.4246 47.9113 39.6004 48.0871C39.7762 48.2629 39.875 48.5014 39.875 48.75V51.5625C39.875 51.8111 39.7762 52.0496 39.6004 52.2254C39.4246 52.4012 39.1861 52.5 38.9375 52.5Z" fill="#F7BA61"/>
  <path d="M37.8884 5.86312L37.7712 5.78543C36.4313 4.89211 34.869 4.38958 33.2595 4.33415C31.6499 4.27872 30.0568 4.67258 28.6585 5.4716L26.75 6.5625H25.0571C23.8626 6.56252 22.6894 6.87831 21.6563 7.47786C20.6232 8.07742 19.7669 8.93942 19.1743 9.97652C18.6208 10.945 18.3151 12.0352 18.2841 13.1502C18.2532 14.2653 18.498 15.3707 18.9969 16.3684L20.1875 18.75V19.6875H22.0625V17.3268C22.0625 16.3351 22.3247 15.3611 22.8224 14.5035C23.3201 13.6458 24.0357 12.935 24.8967 12.443L28.625 10.3125L38.9375 17.6786L38.9473 18.8407L41.75 20.1562V13.0781C41.7499 11.6506 41.3974 10.2451 40.7238 8.98648C40.0502 7.72785 39.0762 6.65499 37.8884 5.86312Z" fill="#422608"/>
  <path d="M28.625 16.875H24.875C24.6264 16.875 24.3879 16.7762 24.2121 16.6004C24.0363 16.4246 23.9375 16.1861 23.9375 15.9375C23.9375 15.6889 24.0363 15.4504 24.2121 15.2746C24.3879 15.0988 24.6264 15 24.875 15H28.625C28.8736 15 29.1121 15.0988 29.2879 15.2746C29.4637 15.4504 29.5625 15.6889 29.5625 15.9375C29.5625 16.1861 29.4637 16.4246 29.2879 16.6004C29.1121 16.7762 28.8736 16.875 28.625 16.875Z" fill="#422608"/>
  <path d="M36.125 16.875H32.375C32.1264 16.875 31.8879 16.7762 31.7121 16.6004C31.5363 16.4246 31.4375 16.1861 31.4375 15.9375C31.4375 15.6889 31.5363 15.4504 31.7121 15.2746C31.8879 15.0988 32.1264 15 32.375 15H36.125C36.3736 15 36.6121 15.0988 36.7879 15.2746C36.9637 15.4504 37.0625 15.6889 37.0625 15.9375C37.0625 16.1861 36.9637 16.4246 36.7879 16.6004C36.6121 16.7762 36.3736 16.875 36.125 16.875Z" fill="#422608"/>
  <path d="M49.6738 31.875C47.8323 31.875 46.0492 32.5214 44.6354 33.7014C43.2216 34.8814 42.2668 36.5202 41.9374 38.332L41.8768 38.6651C41.6757 39.7712 41.7141 40.9076 41.9895 41.9976C42.2648 43.0876 42.7707 44.1059 43.4731 44.9838C44.4526 46.2083 44.9863 47.7297 44.9863 49.2977V49.6875H54.3613V49.2974C54.3613 47.7293 54.895 46.2079 55.8745 44.9835C56.5768 44.1056 57.0827 43.0873 57.3581 41.9973C57.6334 40.9072 57.6719 39.7708 57.4707 38.6647L57.4103 38.3317C57.0809 36.5199 56.126 34.8812 54.7122 33.7012C53.2984 32.5213 51.5153 31.875 49.6738 31.875Z" fill="#FBB540"/>
  <path d="M51.5488 50.625C51.3002 50.625 51.0617 50.5262 50.8859 50.3504C50.7101 50.1746 50.6113 49.9361 50.6113 49.6875V43.125C50.6113 43.0019 50.6356 42.88 50.6827 42.7662C50.7298 42.6525 50.7988 42.5491 50.8859 42.4621L52.4863 40.8618V40.3125H50.9997L50.3368 40.9754C50.2497 41.0625 50.1463 41.1316 50.0326 41.1787C49.9189 41.2258 49.7969 41.25 49.6738 41.25C49.5507 41.25 49.4288 41.2258 49.3151 41.1787C49.2013 41.1316 49.098 41.0625 49.0109 40.9754L48.3476 40.3125H46.8613V40.8618L48.4618 42.4621C48.5488 42.5491 48.6179 42.6525 48.665 42.7662C48.7121 42.88 48.7363 43.0019 48.7363 43.125V49.6875C48.7363 49.9361 48.6376 50.1746 48.4617 50.3504C48.2859 50.5262 48.0475 50.625 47.7988 50.625C47.5502 50.625 47.3117 50.5262 47.1359 50.3504C46.9601 50.1746 46.8613 49.9361 46.8613 49.6875V43.5132L45.2609 41.9129C45.1738 41.8259 45.1048 41.7225 45.0577 41.6088C45.0106 41.495 44.9863 41.3731 44.9863 41.25V39.375C44.9863 39.1264 45.0851 38.8879 45.2609 38.7121C45.4367 38.5363 45.6752 38.4375 45.9238 38.4375H48.7363C48.8594 38.4375 48.9814 38.4617 49.0951 38.5089C49.2088 38.556 49.3122 38.625 49.3993 38.7121L49.6738 38.9868L49.9484 38.7121C50.0355 38.625 50.1388 38.556 50.2526 38.5089C50.3663 38.4617 50.4882 38.4375 50.6113 38.4375H53.4238C53.6725 38.4375 53.9109 38.5363 54.0867 38.7121C54.2626 38.8879 54.3613 39.1264 54.3613 39.375V41.25C54.3613 41.3731 54.3371 41.495 54.29 41.6088C54.2429 41.7225 54.1738 41.8259 54.0868 41.9129L52.4863 43.5132V49.6875C52.4863 49.9361 52.3876 50.1746 52.2117 50.3504C52.0359 50.5262 51.7975 50.625 51.5488 50.625Z" fill="#D18D28"/>
  <path d="M24.875 37.5L26.587 41.3722L23 44.0625L19.25 38.4375L24.875 33.75V37.5Z" fill="#2C91FF"/>
  <path d="M36.1251 37.5L34.4131 41.3722L38.0001 44.0625L41.7501 38.4375L36.1251 33.75V37.5Z" fill="#2C91FF"/>
  <path d="M27.4531 25.3125H24.1719C23.3641 25.3116 22.5896 24.9903 22.0184 24.4191C21.4472 23.8479 21.1259 23.0734 21.125 22.2656V20.8594C21.1259 20.0516 21.4472 19.2771 22.0184 18.7059C22.5896 18.1347 23.3641 17.8134 24.1719 17.8125H27.4531C28.2609 17.8134 29.0354 18.1347 29.6066 18.7059C30.1778 19.2771 30.4991 20.0516 30.5 20.8594V22.2656C30.4991 23.0734 30.1778 23.8479 29.6066 24.4191C29.0354 24.9903 28.2609 25.3116 27.4531 25.3125ZM24.1719 19.6875C23.8612 19.6878 23.5633 19.8114 23.3436 20.0311C23.1239 20.2508 23.0003 20.5487 23 20.8594V22.2656C23.0003 22.5763 23.1239 22.8742 23.3436 23.0939C23.5633 23.3136 23.8612 23.4372 24.1719 23.4375H27.4531C27.7638 23.4372 28.0617 23.3136 28.2814 23.0939C28.5011 22.8742 28.6247 22.5763 28.625 22.2656V20.8594C28.6247 20.5487 28.5011 20.2508 28.2814 20.0311C28.0617 19.8114 27.7638 19.6878 27.4531 19.6875H24.1719Z" fill="#0A71CD"/>
  <path d="M38.9375 25.3125C39.6834 25.3125 40.3988 25.0162 40.9262 24.4887C41.4537 23.9613 41.75 23.2459 41.75 22.5V20.1562C41.75 19.7833 41.6018 19.4256 41.3381 19.1619C41.0744 18.8982 40.7167 18.75 40.3438 18.75H38.9375V25.3125Z" fill="#E6AF89"/>
  <path d="M36.8281 25.3125H33.5469C32.7391 25.3116 31.9646 24.9903 31.3934 24.4191C30.8222 23.8479 30.5009 23.0734 30.5 22.2656V20.8594C30.5009 20.0516 30.8222 19.2771 31.3934 18.7059C31.9646 18.1347 32.7391 17.8134 33.5469 17.8125H36.8281C37.6359 17.8134 38.4104 18.1347 38.9816 18.7059C39.5528 19.2771 39.8741 20.0516 39.875 20.8594V22.2656C39.8741 23.0734 39.5528 23.8479 38.9816 24.4191C38.4104 24.9903 37.6359 25.3116 36.8281 25.3125ZM33.5469 19.6875C33.2362 19.6878 32.9383 19.8114 32.7186 20.0311C32.4989 20.2508 32.3753 20.5487 32.375 20.8594V22.2656C32.3753 22.5763 32.4989 22.8742 32.7186 23.0939C32.9383 23.3136 33.2362 23.4372 33.5469 23.4375H36.8281C37.1388 23.4372 37.4367 23.3136 37.6564 23.0939C37.8761 22.8742 37.9997 22.5763 38 22.2656V20.8594C37.9997 20.5487 37.8761 20.2508 37.6564 20.0311C37.4367 19.8114 37.1388 19.6878 36.8281 19.6875H33.5469Z" fill="#0A71CD"/>
  <path d="M18.3125 32.8125C18.8098 32.8125 19.2867 33.01 19.6383 33.3617C19.99 33.7133 20.1875 34.1902 20.1875 34.6875V57.1875H16.4375V34.6875C16.4375 34.1902 16.635 33.7133 16.9867 33.3617C17.3383 33.01 17.8152 32.8125 18.3125 32.8125Z" fill="#EA9D2D"/>
  <path d="M34.25 51.5625H41.75V57.1875H34.25V51.5625Z" fill="#005DBB"/>
  <path d="M44.9863 49.6875H54.3613V53.4375H44.9863V49.6875Z" fill="#CBCBCB"/>
</svg>
