<svg width="49" height="43" viewBox="0 0 49 43" fill="none" xmlns="http://www.w3.org/2000/svg">
  <path d="M48.169 1.68065L44.1124 0.0580093C44.0166 0.019684 43.9143 -4.39597e-06 43.8111 7.36223e-10H27.5847C27.4975 1.33128e-05 27.4108 0.0140877 27.3281 0.0416815L24.8941 0.853002C24.7326 0.906851 24.5921 1.01016 24.4925 1.14829C24.393 1.28642 24.3394 1.45237 24.3394 1.62264H21.0941C20.9681 1.62263 20.8439 1.65197 20.7313 1.70834L17.6574 3.24528H12.9809C12.8549 3.24527 12.7307 3.27461 12.618 3.33098L9.37276 4.95362C9.23801 5.021 9.12468 5.12458 9.04547 5.25274C8.96626 5.3809 8.92431 5.52858 8.9243 5.67925V7.30189H8.11298C8.11297 7.15505 8.0731 7.01097 7.99764 6.88501C7.92218 6.75905 7.81395 6.65593 7.68448 6.58665C7.55502 6.51736 7.40919 6.48451 7.26252 6.49159C7.11586 6.49868 6.97386 6.54543 6.85168 6.62687L5.83905 7.30189H4.8677C4.86768 7.15505 4.82782 7.01097 4.75236 6.88501C4.6769 6.75905 4.56866 6.65593 4.4392 6.58665C4.30974 6.51736 4.1639 6.48451 4.01724 6.49159C3.87057 6.49868 3.72858 6.54543 3.6064 6.62687L2.59377 7.30189H0.811094C0.213658 7.30189 -0.232873 7.9476 0.131613 8.57972C0.196252 8.68654 0.287735 8.77458 0.396963 8.83508C0.50619 8.89557 0.629354 8.92641 0.7542 8.92453H0.811094C0.811121 9.07135 0.850988 9.21541 0.926445 9.34135C1.0019 9.4673 1.11012 9.57041 1.23957 9.63969C1.36901 9.70897 1.51483 9.74183 1.66148 9.73476C1.80813 9.72769 1.95011 9.68096 2.07229 9.59955L3.08502 8.92453H4.05638C4.0564 9.07135 4.09627 9.21541 4.17173 9.34135C4.24719 9.4673 4.3554 9.57041 4.48485 9.63969C4.6143 9.70897 4.76011 9.74183 4.90676 9.73476C5.05341 9.72769 5.19539 9.68096 5.31758 9.59955L6.33031 8.92453H8.9243V10.5472C8.92431 10.6978 8.96626 10.8455 9.04547 10.9737C9.12468 11.1018 9.23801 11.2054 9.37276 11.2728L12.618 12.8954C12.7307 12.9518 12.8549 12.9811 12.9809 12.9811H17.6574L20.7313 14.5181C20.8439 14.5744 20.9681 14.6038 21.0941 14.6038H24.3394C24.3394 14.774 24.393 14.94 24.4925 15.0781C24.5921 15.2163 24.7326 15.3196 24.8941 15.3734L26.7734 15.9999V19.2689C26.7739 19.7528 26.9664 20.2168 27.3087 20.559C27.6509 20.9013 28.1149 21.0938 28.5988 21.0943H30.0186V25.5099C30.0199 27.0995 29.5852 28.6591 28.7617 30.0189H26.7734C26.1281 30.0196 25.5094 30.2763 25.0531 30.7326C24.5968 31.1889 24.3401 31.8075 24.3394 32.4528V40.566C24.3401 41.2113 24.5968 41.83 25.0531 42.2863C25.5094 42.7426 26.1281 42.9992 26.7734 43H39.7545C40.3998 42.9992 41.0184 42.7426 41.4747 42.2863C41.931 41.83 42.1877 41.2113 42.1885 40.566V30.8302C42.1886 30.7235 42.1676 30.6179 42.1268 30.5194C42.0859 30.4208 42.026 30.3314 41.9504 30.2561L41.8931 30.1988C41.213 29.5224 40.6737 28.7178 40.3066 27.8317C39.9395 26.9455 39.7519 25.9953 39.7545 25.036V17.0377C39.755 16.6075 39.9261 16.1951 40.2303 15.8909C40.5345 15.5867 40.9469 15.4156 41.3771 15.4151H41.3893C43.0925 15.4165 44.7802 15.0915 46.3611 14.4576L48.169 13.7344C48.3196 13.6742 48.4486 13.5703 48.5395 13.436C48.6304 13.3017 48.679 13.1433 48.679 12.9811V2.43396C48.679 2.27181 48.6304 2.11337 48.5395 1.9791C48.4486 1.84482 48.3196 1.74087 48.169 1.68065ZM29.2073 1.62264H42.1885V2.83962C42.1885 2.94721 42.1457 3.05039 42.0696 3.12647C41.9936 3.20254 41.8904 3.24528 41.7828 3.24528H29.613C29.5054 3.24528 29.4022 3.20254 29.3261 3.12647C29.2501 3.05039 29.2073 2.94721 29.2073 2.83962V1.62264ZM20.2828 7.30189H18.6602V6.49057C18.7265 6.49043 18.7926 6.48223 18.8569 6.46613L20.2828 6.10985V7.30189ZM18.6602 8.92453H20.2828V10.1166L18.8569 9.76009C18.7925 9.7443 18.7264 9.73644 18.6602 9.73666V8.92453ZM20.2828 3.74668V4.43732L18.6602 4.84298V4.558L20.2828 3.74668ZM17.0375 5.67925H16.2262C16.011 5.67925 15.8047 5.76472 15.6525 5.91688C15.5003 6.06903 15.4149 6.27539 15.4149 6.49057C15.4149 6.70574 15.5003 6.9121 15.6525 7.06426C15.8047 7.21641 16.011 7.30189 16.2262 7.30189H17.0375V8.92453H16.2262C16.011 8.92453 15.8047 9.01001 15.6525 9.16216C15.5003 9.31431 15.4149 9.52067 15.4149 9.73585C15.4149 9.95103 15.5003 10.1574 15.6525 10.3095C15.8047 10.4617 16.011 10.5472 16.2262 10.5472H17.0375V11.3585H13.7922V4.86792H17.0375V5.67925ZM12.1696 10.8571L10.5469 10.0458V6.18064L12.1696 5.36932V10.8571ZM18.6602 11.3834L20.2828 11.7891V12.4797L18.6602 11.6684V11.3834ZM21.9054 12.9811V3.24528H24.3394V12.9811H21.9054ZM28.5988 19.4717C28.545 19.4717 28.4934 19.4503 28.4554 19.4123C28.4174 19.3743 28.396 19.3227 28.396 19.2689V16.2264H30.0186V19.4717H28.5988ZM25.962 32.4528C25.9623 32.2377 26.0478 32.0315 26.1999 31.8794C26.352 31.7273 26.5583 31.6418 26.7734 31.6415H40.5658V33.2642H38.9432C38.9432 33.049 38.8577 32.8426 38.7055 32.6905C38.5534 32.5383 38.347 32.4528 38.1319 32.4528H34.8866C34.6714 32.4528 34.465 32.5383 34.3129 32.6905C34.1607 32.8426 34.0752 33.049 34.0752 33.2642H25.962V32.4528ZM35.6979 34.0755H37.3205V35.6981H35.6979V34.0755ZM40.5658 40.566C40.5656 40.7811 40.48 40.9874 40.3279 41.1395C40.1758 41.2916 39.9696 41.3771 39.7545 41.3774H26.7734C26.5583 41.3771 26.352 41.2916 26.1999 41.1395C26.0478 40.9874 25.9623 40.7811 25.962 40.566V34.8868H34.0752V36.5094C34.0752 36.7246 34.1607 36.931 34.3129 37.0831C34.465 37.2353 34.6714 37.3208 34.8866 37.3208H38.1319C38.347 37.3208 38.5534 37.2353 38.7055 37.0831C38.8577 36.931 38.9432 36.7246 38.9432 36.5094V34.8868H40.5658V40.566ZM47.0564 12.4319L45.7583 12.9511C44.3691 13.5081 42.886 13.7937 41.3893 13.7925H41.3771C40.8078 13.7929 40.2486 13.943 39.7556 14.2279C39.2626 14.5127 38.8532 14.9221 38.5684 15.4151H35.6979C35.0526 15.4158 34.4339 15.6725 33.9776 16.1288C33.5213 16.5851 33.2647 17.2038 33.2639 17.8491V24.3396C33.2647 24.9849 33.5213 25.6036 33.9776 26.0599C34.4339 26.5162 35.0526 26.7729 35.6979 26.7736H38.301C38.5283 27.9349 38.987 29.0386 39.6498 30.0189H30.6077C31.2893 28.6136 31.6428 27.0718 31.6413 25.5099V15.4151C31.6413 15.1999 31.5558 14.9936 31.4037 14.8414C31.2515 14.6893 31.0451 14.6038 30.83 14.6038H27.7165L25.962 14.019V2.2074L27.5847 1.66655V2.83962C27.5853 3.37737 27.7992 3.89292 28.1794 4.27317C28.5597 4.65341 29.0752 4.86731 29.613 4.86792H41.7828C42.3205 4.86731 42.8361 4.65341 43.2163 4.27317C43.5966 3.89292 43.8105 3.37737 43.8111 2.83962V1.68511L47.0564 2.98323V12.4319ZM38.1319 18.6604H36.5092C36.294 18.6604 36.0877 18.7459 35.9355 18.898C35.7834 19.0502 35.6979 19.2565 35.6979 19.4717C35.6979 19.6869 35.7834 19.8932 35.9355 20.0454C36.0877 20.1975 36.294 20.283 36.5092 20.283H38.1319V21.9057H36.5092C36.294 21.9057 36.0877 21.9911 35.9355 22.1433C35.7834 22.2954 35.6979 22.5018 35.6979 22.717C35.6979 22.9322 35.7834 23.1385 35.9355 23.2907C36.0877 23.4428 36.294 23.5283 36.5092 23.5283H38.1319V25.036C38.1319 25.0745 38.1335 25.1126 38.134 25.1509H35.6979C35.4828 25.1507 35.2766 25.0651 35.1245 24.913C34.9724 24.7609 34.8868 24.5547 34.8866 24.3396V17.8491C34.8868 17.634 34.9724 17.4277 35.1245 17.2756C35.2766 17.1235 35.4828 17.038 35.6979 17.0377H38.1319V18.6604ZM42.1885 7.30189V10.5472C42.1885 10.7623 42.103 10.9687 41.9508 11.1209C41.7987 11.273 41.5923 11.3585 41.3771 11.3585C41.162 11.3585 40.9556 11.273 40.8034 11.1209C40.6513 10.9687 40.5658 10.7623 40.5658 10.5472V7.30189C40.5658 7.08671 40.6513 6.88035 40.8034 6.7282C40.9556 6.57604 41.162 6.49057 41.3771 6.49057C41.5923 6.49057 41.7987 6.57604 41.9508 6.7282C42.103 6.88035 42.1885 7.08671 42.1885 7.30189ZM29.2073 7.30189V10.5472C29.2073 10.7623 29.1218 10.9687 28.9697 11.1209C28.8175 11.273 28.6112 11.3585 28.396 11.3585C28.1808 11.3585 27.9745 11.273 27.8223 11.1209C27.6702 10.9687 27.5847 10.7623 27.5847 10.5472V7.30189C27.5847 7.08671 27.6702 6.88035 27.8223 6.7282C27.9745 6.57604 28.1808 6.49057 28.396 6.49057C28.6112 6.49057 28.8175 6.57604 28.9697 6.7282C29.1218 6.88035 29.2073 7.08671 29.2073 7.30189ZM44.6224 6.49057C44.8376 6.49057 45.044 6.57604 45.1961 6.7282C45.3483 6.88035 45.4337 7.08671 45.4337 7.30189V10.5472C45.4337 10.7623 45.3483 10.9687 45.1961 11.1209C45.044 11.273 44.8376 11.3585 44.6224 11.3585C44.4072 11.3585 44.2009 11.273 44.0487 11.1209C43.8966 10.9687 43.8111 10.7623 43.8111 10.5472V7.30189C43.8111 7.08671 43.8966 6.88035 44.0487 6.7282C44.2009 6.57604 44.4072 6.49057 44.6224 6.49057ZM38.1319 6.49057H31.6413C31.4261 6.49057 31.2197 6.57604 31.0676 6.7282C30.9154 6.88035 30.83 7.08671 30.83 7.30189V10.5472C30.83 10.7623 30.9154 10.9687 31.0676 11.1209C31.2197 11.273 31.4261 11.3585 31.6413 11.3585H38.1319C38.347 11.3585 38.5534 11.273 38.7055 11.1209C38.8577 10.9687 38.9432 10.7623 38.9432 10.5472V7.30189C38.9432 7.08671 38.8577 6.88035 38.7055 6.7282C38.5534 6.57604 38.347 6.49057 38.1319 6.49057ZM37.3205 9.73585H32.4526V8.11321H37.3205V9.73585ZM30.83 38.9434C30.83 39.1586 30.7445 39.3649 30.5923 39.5171C30.4402 39.6692 30.2338 39.7547 30.0186 39.7547H28.396C28.1808 39.7547 27.9745 39.6692 27.8223 39.5171C27.6702 39.3649 27.5847 39.1586 27.5847 38.9434C27.5847 38.7282 27.6702 38.5219 27.8223 38.3697C27.9745 38.2176 28.1808 38.1321 28.396 38.1321H30.0186C30.2338 38.1321 30.4402 38.2176 30.5923 38.3697C30.7445 38.5219 30.83 38.7282 30.83 38.9434ZM34.8866 38.9434C34.8866 39.1586 34.8011 39.3649 34.6489 39.5171C34.4968 39.6692 34.2904 39.7547 34.0752 39.7547H33.2639C33.0488 39.7547 32.8424 39.6692 32.6902 39.5171C32.5381 39.3649 32.4526 39.1586 32.4526 38.9434C32.4526 38.7282 32.5381 38.5219 32.6902 38.3697C32.8424 38.2176 33.0488 38.1321 33.2639 38.1321H34.0752C34.2904 38.1321 34.4968 38.2176 34.6489 38.3697C34.8011 38.5219 34.8866 38.7282 34.8866 38.9434Z" fill="url(#paint0_linear)"/>
  <defs>
    <linearGradient id="paint0_linear" x1="14.2679" y1="31.5011" x2="46.1751" y2="-0.406066" gradientUnits="userSpaceOnUse">
      <stop stop-color="#EE83EF"/>
      <stop offset="1" stop-color="#41DFD0"/>
    </linearGradient>
  </defs>
</svg>
