<svg width="33" height="32" viewBox="0 0 33 32" fill="none" xmlns="http://www.w3.org/2000/svg">
  <path d="M13.75 18.6667L28.875 4" stroke="#9378FF" stroke-width="3.5" stroke-linecap="round" stroke-linejoin="round"/>
  <path
    d="M28.875 4L19.9375 28C19.8772 28.1277 19.7804 28.2358 19.6585 28.3117C19.5366 28.3875 19.3948 28.4278 19.25 28.4278C19.1052 28.4278 18.9635 28.3875 18.8416 28.3117C18.7197 28.2358 18.6229 28.1277 18.5625 28L13.75 18.6667L4.12504 14C3.99339 13.9415 3.88183 13.8476 3.80362 13.7294C3.72541 13.6112 3.68384 13.4738 3.68384 13.3333C3.68384 13.1929 3.72541 13.0554 3.80362 12.9373C3.88183 12.8191 3.99339 12.7252 4.12504 12.6667L28.875 4Z"
    stroke="#9378FF" stroke-width="3.5" stroke-linecap="round" stroke-linejoin="round"/>
</svg>
