<?xml version="1.0" encoding="UTF-8"?>
<!DOCTYPE svg PUBLIC "-//W3C//DTD SVG 1.1//EN" "http://www.w3.org/Graphics/SVG/1.1/DTD/svg11.dtd">
<!-- Creator: CorelDRAW 2019 (64-Bit) -->
<svg xmlns="http://www.w3.org/2000/svg" xml:space="preserve" width="46.039mm" height="17mm" version="1.1" style="shape-rendering:geometricPrecision; text-rendering:geometricPrecision; image-rendering:optimizeQuality; fill-rule:evenodd; clip-rule:evenodd"
viewBox="0 0 243.73 90"
 xmlns:xlink="http://www.w3.org/1999/xlink">
 <defs>
  <style type="text/css">
   <![CDATA[
    .fil3 {fill:#120E21}
    .fil1 {fill:#9378FF}
    .fil2 {fill:#120E21;fill-rule:nonzero}
    .fil0 {fill:#9378FF;fill-rule:nonzero}
   ]]>
  </style>
 </defs>
 <g id="Слой_x0020_1">
  <metadata id="CorelCorpID_0Corel-Layer"/>
  <g id="_2531788409200">
   <polygon class="fil0" points="50.42,22.17 38.55,22.17 22.71,61.15 32.87,61.15 44.48,31.05 56.1,61.15 66.26,61.15 "/>
   <path class="fil1" d="M40.19 89.8l-0.08 -0.01 -0.01 -0 -0.01 -0 -0.01 -0 -0.01 -0c-5.97,-0.6 -11.71,-2.41 -16.89,-5.24 -10,-5.46 -17.92,-14.74 -21.38,-26.52 -3.46,-11.79 -1.81,-23.87 3.65,-33.86 2.81,-5.15 6.63,-9.74 11.28,-13.46l0.09 -0.08c0,-0 0.01,-0.01 0.01,-0.01 6.89,-5.64 15.32,-9.4 24.45,-10.59 0.05,-0.01 0.35,-0.04 0.39,-0.04l3.83 9.42c-0.06,0 -0.37,0.03 -0.42,0.03 -8.14,0.51 -15.7,3.57 -21.78,8.45 -0.1,0.08 -0.19,0.15 -0.29,0.23 -0.15,0.12 -0.3,0.25 -0.45,0.38l-0.01 0.01 -0.01 0.01 -0.01 0.01 -0.01 0.01 -0.01 0.01c-0.04,0.03 -0.08,0.07 -0.12,0.1 -3.45,2.84 -6.29,6.31 -8.4,10.17 -4.26,7.81 -5.55,17.24 -2.84,26.46 2.7,9.22 8.88,16.46 16.68,20.72 4.13,2.26 8.72,3.68 13.5,4.12 10.39,0.85 20.19,-2.49 27.68,-8.63 0.36,-0.3 0.72,-0.6 1.08,-0.92l3.84 9.44c-9.3,7.12 -21.19,10.91 -33.74,9.78z"/>
  </g>
  <g id="_2531788410960">
   <path class="fil2" d="M116.79 43.52c0,2.7 -0.86,4.94 -2.58,6.78 -1.72,1.84 -4.39,2.76 -7.09,2.76 -2.7,0 -4.9,-0.9 -6.6,-2.76 -1.68,-1.82 -2.53,-4.08 -2.53,-6.78 0,-2.64 0.85,-4.9 2.53,-6.72 1.71,-1.85 3.9,-2.76 6.6,-2.76 2.7,0 5.37,0.92 7.09,2.76 1.72,1.84 2.58,4.08 2.58,6.72l0 0zm-0.17 -12.67c-2.78,-2.4 -6.2,-3.64 -10.16,-3.64 -4.42,0 -8.64,1.55 -11.57,4.59 -2.93,3.04 -4.36,6.95 -4.36,11.6 0,4.65 1.44,8.61 4.36,11.77 2.93,3.16 7.09,4.71 11.57,4.71 4.08,0 7.1,-1.18 10.16,-3.63l0 2.88 7.12 0 0 -31.18 -7.12 0 0 2.9z"/>
   <path class="fil3" d="M130.42 59.6c3.73,0 6.6,-1.55 8.61,-4.65 0.75,-1.21 1.49,-2.99 1.95,-4.19 0.52,-1.32 1.03,-3.9 1.26,-5.05 0.17,-0.57 0.34,-1.49 0.52,-2.81l0.34 -2.64c0.06,-0.46 0.23,-1.44 0.4,-2.93l0.34 -2.7 6.95 0 0 24.52 7.47 0 0 -31.18 -20.9 0 -0.23 2.3c-0.63,5.97 -1.26,10.57 -1.84,13.84 -0.57,3.22 -1.44,5.69 -2.64,7.35 -1.15,1.55 -2.7,2.35 -4.59,2.35l0.4 5.57c0.86,0.17 1.49,0.23 1.95,0.23z"/>
   <path class="fil2" d="M225.12 33.7c7.18,0.06 11.37,3.79 11.37,9.82 0,6.14 -4.31,9.88 -11.37,9.94l0 -19.75zm-18.43 9.82c0,-6.03 4.19,-9.76 11.37,-9.82l0 19.75c-7.06,-0.17 -11.37,-3.79 -11.37,-9.94zm37.04 0.06c0,-4.94 -1.72,-8.84 -5.11,-11.77 -3.39,-2.93 -7.92,-4.48 -13.5,-4.65l0 -8.38 -7.06 0 0 8.38c-5.63,0.17 -10.16,1.72 -13.55,4.65 -3.39,2.93 -5.05,6.83 -5.05,11.71 0,4.88 1.67,8.79 5.05,11.66 3.39,2.87 7.87,4.42 13.55,4.65l0 8.38 7.06 0 0 -8.38c5.69,-0.17 10.16,-1.72 13.55,-4.59 3.39,-2.87 5.05,-6.78 5.05,-11.66z"/>
   <polygon class="fil2" points="169.48,59.14 186.99,39.68 186.99,59.14 194.23,59.14 194.23,27.96 189.52,27.96 172.01,47.66 172.01,27.96 164.71,27.96 164.71,59.14 "/>
  </g>
 </g>
</svg>
