<?xml version="1.0" encoding="UTF-8"?>
<!DOCTYPE svg PUBLIC "-//W3C//DTD SVG 1.1//EN" "http://www.w3.org/Graphics/SVG/1.1/DTD/svg11.dtd">
<!-- Creator: CorelDRAW 2018 (64-Bit) -->
<svg xmlns="http://www.w3.org/2000/svg" xml:space="preserve" width="1600px" height="794px" version="1.1" style="shape-rendering:geometricPrecision; text-rendering:geometricPrecision; image-rendering:optimizeQuality; fill-rule:evenodd; clip-rule:evenodd"
     viewBox="0 0 86.73 86.73"
     xmlns:xlink="http://www.w3.org/1999/xlink">
 <defs>
  <style type="text/css">
   <![CDATA[
    .fil1 {fill:#9378FF}
    .fil2 {fill:#120E21;fill-rule:nonzero}
    .fil0 {fill:#9378FF;fill-rule:nonzero}
   ]]>
  </style>
 </defs>
 <g id="Слой_x0020_1">
  <metadata id="CorelCorpID_0Corel-Layer"/>
  <g id="_2024586366560">
   <g>
    <polygon class="fil0" points="48.59,21.37 37.15,21.37 21.88,58.94 31.68,58.94 42.87,29.92 54.07,58.94 63.86,58.94 "/>
    <path class="fil1" d="M38.73 86.54l-0.08 0 0 0 -0.01 -0.01 0 0 -0.01 0c-5.75,-0.58 -11.29,-2.32 -16.28,-5.04 -9.64,-5.27 -17.27,-14.2 -20.6,-25.56 -3.34,-11.36 -1.75,-23 3.51,-32.64 2.71,-4.96 6.39,-9.38 10.87,-12.97l0.09 -0.07c0,0 0.01,-0.01 0.01,-0.01 6.64,-5.44 14.76,-9.06 23.56,-10.2 0.05,-0.01 0.34,-0.03 0.38,-0.04l3.69 9.08c-0.05,0.01 -0.35,0.03 -0.41,0.04 -7.84,0.48 -15.13,3.43 -20.99,8.14 -0.09,0.08 -0.18,0.15 -0.27,0.23 -0.15,0.12 -0.29,0.24 -0.44,0.36l-0.01 0.01 -0.01 0.01 -0.01 0 0 0.01 -0.01 0.01c-0.04,0.03 -0.08,0.06 -0.11,0.09 -3.33,2.74 -6.07,6.08 -8.1,9.8 -4.11,7.52 -5.35,16.62 -2.74,25.5 2.6,8.88 8.56,15.86 16.08,19.97 3.98,2.17 8.4,3.54 13,3.97 10.02,0.82 19.46,-2.4 26.68,-8.32 0.35,-0.29 0.7,-0.58 1.04,-0.88l3.69 9.09c-8.96,6.87 -20.42,10.52 -32.52,9.43z"/>
   </g>
<!--   <g>-->
<!--    <path class="fil2" d="M132.65 14.94l-7.19 0 0 42.06 7.19 0 0 -42.06zm9.99 8.41c2.6,0 4.53,-1.88 4.53,-4.54 0,-2.6 -1.93,-4.54 -4.53,-4.54 -2.61,0 -4.65,1.94 -4.65,4.54 0,2.66 1.99,4.54 4.65,4.54zm3.54 3.6l-7.25 0 0 30.05 7.25 0 0 -30.05zm21.6 -6.7c1.33,0 2.94,0.39 4.82,1.22l2.27 -5.65c-2.66,-1.38 -5.37,-2.04 -8.08,-2.04 -7.14,0 -11.96,4.2 -11.96,11.78l0 1.39 -4.76 0 0 6.09 4.76 0 0 23.96 7.2 0 0 -23.96 9.41 0 0 -6.09 -9.41 0 0 -1.22c0,-3.54 2.04,-5.48 5.75,-5.48z"/>-->
<!--    <path class="fil2" d="M112.55 41.95c0,2.6 -0.83,4.76 -2.49,6.53 -1.66,1.77 -4.23,2.65 -6.83,2.65 -2.6,0 -4.72,-0.87 -6.37,-2.65 -1.62,-1.76 -2.43,-3.93 -2.43,-6.53 0,-2.55 0.81,-4.72 2.43,-6.48 1.65,-1.78 3.77,-2.66 6.37,-2.66 2.6,0 5.17,0.89 6.83,2.66 1.66,1.77 2.49,3.93 2.49,6.48l0 0zm-0.16 -12.21c-2.69,-2.32 -5.98,-3.51 -9.8,-3.51 -4.26,0 -8.33,1.49 -11.15,4.43 -2.82,2.93 -4.21,6.69 -4.21,11.18 0,4.48 1.39,8.3 4.21,11.34 2.82,3.04 6.83,4.54 11.15,4.54 3.93,0 6.85,-1.14 9.8,-3.5l0 2.78 6.86 0 0 -30.05 -6.86 0 0 2.79z"/>-->
<!--   </g>-->
  </g>
 </g>
</svg>
