<svg width="27" height="26" viewBox="0 0 27 26" fill="none" xmlns="http://www.w3.org/2000/svg">
  <path
    d="M15.6364 25.16L12.3375 20.8985H6.21098C5.8985 20.8985 5.59883 20.7703 5.37788 20.5419C5.15693 20.3136 5.0328 20.0039 5.0328 19.681V6.41321C5.0328 6.09029 5.15693 5.7806 5.37788 5.55226C5.59883 5.32393 5.8985 5.19565 6.21098 5.19565H25.0619C25.3744 5.19565 25.674 5.32393 25.895 5.55226C26.1159 5.7806 26.2401 6.09029 26.2401 6.41321V19.681C26.2401 20.0039 26.1159 20.3136 25.895 20.5419C25.674 20.7703 25.3744 20.8985 25.0619 20.8985H18.9353L15.6364 25.16ZM17.8031 18.4634H23.8837V7.63077H7.38916V18.4634H13.4698L15.6364 21.2614L17.8031 18.4634ZM1.49825 0.199997H21.5273V2.63512H2.67643V16.0283H0.320068V1.41756C0.320068 1.09464 0.444198 0.784949 0.66515 0.556612C0.886102 0.328275 1.18578 0.199997 1.49825 0.199997Z"
    fill="#9378FF" />
</svg>
