<svg width="25" height="25" viewBox="0 0 25 25" fill="none" xmlns="http://www.w3.org/2000/svg">
  <path
    d="M12.6799 24.16C6.05233 24.16 0.679932 18.7876 0.679932 12.16C0.679932 5.5324 6.05233 0.160004 12.6799 0.160004C19.3075 0.160004 24.6799 5.5324 24.6799 12.16C24.6799 18.7876 19.3075 24.16 12.6799 24.16ZM6.69553 19.6672C8.39419 21.0252 10.5051 21.7635 12.6799 21.76C15.0439 21.76 17.2075 20.9056 18.8803 19.4896C18.0988 18.6877 17.1644 18.0507 16.1324 17.6162C15.1004 17.1817 13.9917 16.9586 12.8719 16.96C11.711 16.9587 10.5625 17.1986 9.49929 17.6647C8.43605 18.1307 7.48127 18.8126 6.69553 19.6672ZM5.01913 17.944C6.02768 16.8737 7.24474 16.0213 8.5953 15.4393C9.94586 14.8573 11.4013 14.558 12.8719 14.56C14.2899 14.5582 15.6943 14.8364 17.0044 15.3789C18.3146 15.9213 19.5046 16.7172 20.5063 17.7208C21.5336 16.275 22.1403 14.5728 22.259 12.8031C22.3777 11.0334 22.0039 9.26547 21.1789 7.69535C20.354 6.12523 19.1102 4.81435 17.5855 3.90814C16.0608 3.00192 14.3149 2.53581 12.5415 2.56151C10.768 2.5872 9.03632 3.10371 7.53856 4.05371C6.04079 5.00372 4.83548 6.35009 4.05636 7.94345C3.27724 9.5368 2.95477 11.3149 3.12471 13.0803C3.29466 14.8458 3.95038 16.5297 5.01913 17.9452V17.944ZM12.6799 13.36C11.4069 13.36 10.186 12.8543 9.28582 11.9541C8.38564 11.0539 7.87993 9.83304 7.87993 8.56C7.87993 7.28696 8.38564 6.06607 9.28582 5.16589C10.186 4.26572 11.4069 3.76 12.6799 3.76C13.953 3.76 15.1739 4.26572 16.074 5.16589C16.9742 6.06607 17.4799 7.28696 17.4799 8.56C17.4799 9.83304 16.9742 11.0539 16.074 11.9541C15.1739 12.8543 13.953 13.36 12.6799 13.36ZM12.6799 10.96C13.3165 10.96 13.9269 10.7071 14.377 10.2571C14.8271 9.80697 15.0799 9.19652 15.0799 8.56C15.0799 7.92348 14.8271 7.31304 14.377 6.86295C13.9269 6.41286 13.3165 6.16 12.6799 6.16C12.0434 6.16 11.433 6.41286 10.9829 6.86295C10.5328 7.31304 10.2799 7.92348 10.2799 8.56C10.2799 9.19652 10.5328 9.80697 10.9829 10.2571C11.433 10.7071 12.0434 10.96 12.6799 10.96Z"
    fill="#9378FF" />
</svg>
